<svg xmlns="http://www.w3.org/2000/svg" width="960" height="560" viewBox="0 0 960 560" role="img" aria-label="Edo Tensei · VS Code Marketplace line chart">
  <defs>
    <style>
      @import url('https://fonts.googleapis.com/css2?family=Caveat:wght@400;700&amp;display=swap');
      text { font-family: 'Caveat', cursive, sans-serif; }
    </style>
  </defs>
  <rect width="960" height="560" fill="#fdfaf6"/>
  <text x="480" y="44" text-anchor="middle" font-size="26" font-weight="700" fill="#2c2a29">Edo Tensei · VS Code Marketplace</text>
  <g transform="translate(104,64)"><rect x="0" y="-15" width="185" height="30" rx="3" fill="#fdfaf6" stroke="#2c2a29" stroke-width="1.5"/><line x1="10" y1="0" x2="32" y2="0" stroke="#2563eb" stroke-width="3.5" stroke-linecap="round"/><text x="40" y="6" font-family="'Caveat', cursive, sans-serif" font-size="15" font-weight="700" fill="#2c2a29">installs (left)</text></g>
  <g transform="translate(304,64)"><rect x="0" y="-15" width="185" height="30" rx="3" fill="#fdfaf6" stroke="#2c2a29" stroke-width="1.5"/><line x1="10" y1="0" x2="32" y2="0" stroke="#ef3b20" stroke-width="3.5" stroke-linecap="round"/><text x="40" y="6" font-family="'Caveat', cursive, sans-serif" font-size="15" font-weight="700" fill="#2c2a29">downloads (right)</text></g>
  <line x1="96" y1="455.0" x2="856" y2="455.6" stroke="#2c2a29" stroke-width="1" stroke-dasharray="6 4" opacity="0.15"/>
  <line x1="96" y1="383.0" x2="856" y2="382.1" stroke="#2c2a29" stroke-width="1" stroke-dasharray="6 4" opacity="0.15"/>
  <line x1="96" y1="234.1" x2="856" y2="234.8" stroke="#2c2a29" stroke-width="1" stroke-dasharray="6 4" opacity="0.15"/>
  <line x1="96" y1="159.4" x2="856" y2="160.8" stroke="#2c2a29" stroke-width="1" stroke-dasharray="6 4" opacity="0.15"/>
  <line x1="96" y1="86.1" x2="856" y2="85.3" stroke="#2c2a29" stroke-width="1" stroke-dasharray="6 4" opacity="0.15"/>
  <line x1="90" y1="456.0" x2="96" y2="456.0" stroke="#2563eb" stroke-width="2"/><text x="86" y="461.0" text-anchor="end" font-family="'Caveat', cursive, sans-serif" font-size="15" font-weight="700" fill="#2563eb">5</text>
  <line x1="90" y1="382.0" x2="96" y2="382.0" stroke="#2563eb" stroke-width="2"/><text x="86" y="387.0" text-anchor="end" font-family="'Caveat', cursive, sans-serif" font-size="15" font-weight="700" fill="#2563eb">6</text>
  <line x1="90" y1="234.0" x2="96" y2="234.0" stroke="#2563eb" stroke-width="2"/><text x="86" y="239.0" text-anchor="end" font-family="'Caveat', cursive, sans-serif" font-size="15" font-weight="700" fill="#2563eb">8</text>
  <line x1="90" y1="160.0" x2="96" y2="160.0" stroke="#2563eb" stroke-width="2"/><text x="86" y="165.0" text-anchor="end" font-family="'Caveat', cursive, sans-serif" font-size="15" font-weight="700" fill="#2563eb">9</text>
  <line x1="90" y1="86.0" x2="96" y2="86.0" stroke="#2563eb" stroke-width="2"/><text x="86" y="91.0" text-anchor="end" font-family="'Caveat', cursive, sans-serif" font-size="15" font-weight="700" fill="#2563eb">10</text>
  <line x1="856" y1="456.0" x2="862" y2="456.0" stroke="#ef3b20" stroke-width="2"/><text x="866" y="461.0" text-anchor="start" font-family="'Caveat', cursive, sans-serif" font-size="15" font-weight="700" fill="#ef3b20">155</text>
  <line x1="856" y1="365.6" x2="862" y2="365.6" stroke="#ef3b20" stroke-width="2"/><text x="866" y="370.6" text-anchor="start" font-family="'Caveat', cursive, sans-serif" font-size="15" font-weight="700" fill="#ef3b20">166</text>
  <line x1="856" y1="266.9" x2="862" y2="266.9" stroke="#ef3b20" stroke-width="2"/><text x="866" y="271.9" text-anchor="start" font-family="'Caveat', cursive, sans-serif" font-size="15" font-weight="700" fill="#ef3b20">178</text>
  <line x1="856" y1="176.4" x2="862" y2="176.4" stroke="#ef3b20" stroke-width="2"/><text x="866" y="181.4" text-anchor="start" font-family="'Caveat', cursive, sans-serif" font-size="15" font-weight="700" fill="#ef3b20">189</text>
  <line x1="856" y1="86.0" x2="862" y2="86.0" stroke="#ef3b20" stroke-width="2"/><text x="866" y="91.0" text-anchor="start" font-family="'Caveat', cursive, sans-serif" font-size="15" font-weight="700" fill="#ef3b20">200</text>
  <path d="M94.8,85.7 L94.7,456.8 L854.8,456.0" fill="none" stroke="#2c2a29" stroke-width="2.5" stroke-linecap="round"/>
  <path d="M855.9,85.0 L854.6,456.4" fill="none" stroke="#2c2a29" stroke-width="2" stroke-linecap="round" stroke-dasharray="4 3" opacity="0.5"/>
  <path d="M97.7,454.0 L600.5,457.9 L855.9,455.8" fill="none" stroke="#2563eb" stroke-width="3.5" stroke-linecap="round" stroke-linejoin="round"/>
  <circle cx="96.0" cy="456.0" r="3.5" fill="#2563eb"/>
  <circle cx="602.7" cy="456.0" r="3.5" fill="#2563eb"/>
  <circle cx="856.0" cy="456.0" r="3.5" fill="#2563eb"/>
  <text x="776.0" y="446.0" font-family="'Caveat', cursive, sans-serif" font-size="16" font-weight="700" fill="#2563eb">5</text>
  <path d="M95.3,423.1 L604.6,397.9 L857.5,265.2" fill="none" stroke="#ef3b20" stroke-width="3.5" stroke-linecap="round" stroke-linejoin="round"/>
  <circle cx="96.0" cy="423.1" r="3.5" fill="#ef3b20"/>
  <circle cx="602.7" cy="398.4" r="3.5" fill="#ef3b20"/>
  <circle cx="856.0" cy="266.9" r="3.5" fill="#ef3b20"/>
  <text x="776.0" y="256.9" font-family="'Caveat', cursive, sans-serif" font-size="16" font-weight="700" fill="#ef3b20">178</text>
  <text x="96.0" y="482" text-anchor="middle" font-family="'Caveat', cursive, sans-serif" font-size="15" font-weight="600" fill="#2c2a29">May 17</text>
  <text x="349.3" y="482" text-anchor="middle" font-family="'Caveat', cursive, sans-serif" font-size="15" font-weight="600" fill="#2c2a29">May 18</text>
  <text x="602.7" y="482" text-anchor="middle" font-family="'Caveat', cursive, sans-serif" font-size="15" font-weight="600" fill="#2c2a29">May 19</text>
  <text x="856.0" y="482" text-anchor="middle" font-family="'Caveat', cursive, sans-serif" font-size="15" font-weight="600" fill="#2c2a29">May 20</text>
  <text x="476" y="546" text-anchor="middle" font-family="'Caveat', cursive, sans-serif" font-size="17" font-weight="600" fill="#5c5a59">Date</text>
  <text transform="translate(22 271) rotate(-90)" text-anchor="middle" font-family="'Caveat', cursive, sans-serif" font-size="17" font-weight="700" fill="#2563eb">installs</text>
  <text transform="translate(946 271) rotate(90)" text-anchor="middle" font-family="'Caveat', cursive, sans-serif" font-size="17" font-weight="700" fill="#ef3b20">downloads</text>
  
</svg>
