<svg xmlns="http://www.w3.org/2000/svg" width="960" height="560" viewBox="0 0 960 560" role="img" aria-label="Ubuntu (Docker) · Docker Hub line chart">
  <defs>
    <style>
      @import url('https://fonts.googleapis.com/css2?family=Caveat:wght@400;700&amp;display=swap');
      text { font-family: 'Caveat', cursive, sans-serif; }
    </style>
  </defs>
  <rect width="960" height="560" fill="#fdfaf6"/>
  <text x="480" y="38" text-anchor="middle" font-size="26" font-weight="700" fill="#2c2a29">Ubuntu (Docker) · Docker Hub</text>
  <g transform="translate(387.5,76)"><rect x="0" y="-15" width="185" height="30" rx="3" fill="#fdfaf6" stroke="#2c2a29" stroke-width="1.5"/><line x1="10" y1="0" x2="32" y2="0" stroke="#ef3b20" stroke-width="3.5" stroke-linecap="round"/><text x="40" y="6" font-family="'Caveat', cursive, sans-serif" font-size="15" font-weight="700" fill="#2c2a29">pulls</text></g>
  <line x1="96" y1="455.0" x2="856" y2="455.6" stroke="#2c2a29" stroke-width="1" stroke-dasharray="6 4" opacity="0.2"/><text x="86" y="461.0" text-anchor="end" font-family="'Caveat', cursive, sans-serif" font-size="16" font-weight="600" fill="#2c2a29">9.9B</text>
  <line x1="96" y1="371.0" x2="856" y2="370.1" stroke="#2c2a29" stroke-width="1" stroke-dasharray="6 4" opacity="0.2"/><text x="86" y="375.0" text-anchor="end" font-family="'Caveat', cursive, sans-serif" font-size="16" font-weight="600" fill="#2c2a29">12.4B</text>
  <line x1="96" y1="284.1" x2="856" y2="284.8" stroke="#2c2a29" stroke-width="1" stroke-dasharray="6 4" opacity="0.2"/><text x="86" y="289.0" text-anchor="end" font-family="'Caveat', cursive, sans-serif" font-size="16" font-weight="600" fill="#2c2a29">14.9B</text>
  <line x1="96" y1="197.4" x2="856" y2="198.8" stroke="#2c2a29" stroke-width="1" stroke-dasharray="6 4" opacity="0.2"/><text x="86" y="203.0" text-anchor="end" font-family="'Caveat', cursive, sans-serif" font-size="16" font-weight="600" fill="#2c2a29">17.5B</text>
  <line x1="96" y1="112.1" x2="856" y2="111.3" stroke="#2c2a29" stroke-width="1" stroke-dasharray="6 4" opacity="0.2"/><text x="86" y="117.0" text-anchor="end" font-family="'Caveat', cursive, sans-serif" font-size="16" font-weight="600" fill="#2c2a29">20B</text>
  <path d="M94.8,111.7 L94.7,456.8 L854.8,456.0" fill="none" stroke="#2c2a29" stroke-width="2.5" stroke-linecap="round"/>
  
  <path d="M97.7,453.0 L123.0,456.8 L154.4,454.5 L166.7,455.8 L178.4,454.9 L184.6,456.8 L299.4,451.8 L328.2,451.8 L360.7,452.4 L371.4,451.1 L403.5,451.0 L415.3,452.1 L423.6,454.3 L430.6,453.0 L448.3,450.7 L454.3,451.6 L473.8,453.0 L495.8,452.9 L505.6,452.5 L511.0,452.1 L535.0,450.9 L577.7,450.9 L590.6,453.6 L606.1,453.2 L621.4,453.0 L635.3,449.3 L645.0,453.1 L657.2,452.3 L685.8,449.8 L708.3,452.1 L740.3,448.6 L762.1,448.4 L797.0,451.7 L806.9,450.2 L819.8,449.4 L828.2,452.2 L848.6,450.9 L853.5,449.7" fill="none" stroke="#ef3b20" stroke-width="3.5" stroke-linecap="round" stroke-linejoin="round"/>
  <circle cx="856.0" cy="450.0" r="5" fill="#ef3b20"/>
  <text x="776.0" y="440.0" font-family="'Caveat', cursive, sans-serif" font-size="16" font-weight="700" fill="#ef3b20">10,031,083,911</text>
  <text x="96.0" y="482" text-anchor="middle" font-family="'Caveat', cursive, sans-serif" font-size="15" font-weight="600" fill="#2c2a29">May 17</text>
  <text x="286.0" y="482" text-anchor="middle" font-family="'Caveat', cursive, sans-serif" font-size="15" font-weight="600" fill="#2c2a29">Jun 12</text>
  <text x="476.0" y="482" text-anchor="middle" font-family="'Caveat', cursive, sans-serif" font-size="15" font-weight="600" fill="#2c2a29">Jul 8</text>
  <text x="666.0" y="482" text-anchor="middle" font-family="'Caveat', cursive, sans-serif" font-size="15" font-weight="600" fill="#2c2a29">Aug 3</text>
  <text x="856.0" y="482" text-anchor="middle" font-family="'Caveat', cursive, sans-serif" font-size="15" font-weight="600" fill="#2c2a29">Aug 29</text>
  <text x="476" y="546" text-anchor="middle" font-family="'Caveat', cursive, sans-serif" font-size="17" font-weight="600" fill="#5c5a59">Date</text>
  <text transform="translate(22 284) rotate(-90)" text-anchor="middle" font-family="'Caveat', cursive, sans-serif" font-size="17" font-weight="600" fill="#5c5a59">Pulls</text>
  
  
</svg>
