<svg xmlns="http://www.w3.org/2000/svg" width="960" height="560" viewBox="0 0 960 560" role="img" aria-label="Ubuntu (Docker) · Docker Hub line chart">
  <defs>
    <style>
      @import url('https://fonts.googleapis.com/css2?family=Caveat:wght@400;700&amp;display=swap');
      text { font-family: 'Caveat', cursive, sans-serif; }
    </style>
  </defs>
  <rect width="960" height="560" fill="#fdfaf6"/>
  <text x="480" y="38" text-anchor="middle" font-size="26" font-weight="700" fill="#2c2a29">Ubuntu (Docker) · Docker Hub</text>
  <g transform="translate(387.5,76)"><rect x="0" y="-15" width="185" height="30" rx="3" fill="#fdfaf6" stroke="#2c2a29" stroke-width="1.5"/><line x1="10" y1="0" x2="32" y2="0" stroke="#ef3b20" stroke-width="3.5" stroke-linecap="round"/><text x="40" y="6" font-family="'Caveat', cursive, sans-serif" font-size="15" font-weight="700" fill="#2c2a29">pulls</text></g>
  <line x1="96" y1="455.0" x2="856" y2="455.6" stroke="#2c2a29" stroke-width="1" stroke-dasharray="6 4" opacity="0.2"/><text x="86" y="461.0" text-anchor="end" font-family="'Caveat', cursive, sans-serif" font-size="16" font-weight="600" fill="#2c2a29">9.9B</text>
  <line x1="96" y1="371.0" x2="856" y2="370.1" stroke="#2c2a29" stroke-width="1" stroke-dasharray="6 4" opacity="0.2"/><text x="86" y="375.0" text-anchor="end" font-family="'Caveat', cursive, sans-serif" font-size="16" font-weight="600" fill="#2c2a29">9.9B</text>
  <line x1="96" y1="284.1" x2="856" y2="284.8" stroke="#2c2a29" stroke-width="1" stroke-dasharray="6 4" opacity="0.2"/><text x="86" y="289.0" text-anchor="end" font-family="'Caveat', cursive, sans-serif" font-size="16" font-weight="600" fill="#2c2a29">9.9B</text>
  <line x1="96" y1="197.4" x2="856" y2="198.8" stroke="#2c2a29" stroke-width="1" stroke-dasharray="6 4" opacity="0.2"/><text x="86" y="203.0" text-anchor="end" font-family="'Caveat', cursive, sans-serif" font-size="16" font-weight="600" fill="#2c2a29">10B</text>
  <line x1="96" y1="112.1" x2="856" y2="111.3" stroke="#2c2a29" stroke-width="1" stroke-dasharray="6 4" opacity="0.2"/><text x="86" y="117.0" text-anchor="end" font-family="'Caveat', cursive, sans-serif" font-size="16" font-weight="600" fill="#2c2a29">10B</text>
  <path d="M94.8,111.7 L94.7,456.8 L854.8,456.0" fill="none" stroke="#2c2a29" stroke-width="2.5" stroke-linecap="round"/>
  
  <path d="M97.7,407.2 L136.6,399.7 L181.6,389.8 L200.7,386.0 L215.8,382.3 L225.4,381.5 L394.5,335.1 L436.9,321.0 L482.9,308.7 L500.5,299.8 L546.1,285.0 L564.7,279.0 L576.4,276.8 L586.9,271.5 L611.3,261.4 L620.7,259.3 L650.4,249.6 L682.7,237.3 L695.9,233.9 L704.6,230.2 L738.8,216.6 L801.9,193.4 L821.6,187.6 L843.8,179.8 L855.2,176.5" fill="none" stroke="#ef3b20" stroke-width="3.5" stroke-linecap="round" stroke-linejoin="round"/>
  <circle cx="856.0" cy="175.3" r="5" fill="#ef3b20"/>
  <text x="776.0" y="165.3" font-family="'Caveat', cursive, sans-serif" font-size="16" font-weight="700" fill="#ef3b20">9,975,404,667</text>
  <text x="96.0" y="482" text-anchor="middle" font-family="'Caveat', cursive, sans-serif" font-size="15" font-weight="600" fill="#2c2a29">May 17</text>
  <text x="288.7" y="482" text-anchor="middle" font-family="'Caveat', cursive, sans-serif" font-size="15" font-weight="600" fill="#2c2a29">Jun 4</text>
  <text x="481.4" y="482" text-anchor="middle" font-family="'Caveat', cursive, sans-serif" font-size="15" font-weight="600" fill="#2c2a29">Jun 22</text>
  <text x="663.3" y="482" text-anchor="middle" font-family="'Caveat', cursive, sans-serif" font-size="15" font-weight="600" fill="#2c2a29">Jul 9</text>
  <text x="856.0" y="482" text-anchor="middle" font-family="'Caveat', cursive, sans-serif" font-size="15" font-weight="600" fill="#2c2a29">Jul 27</text>
  <text x="476" y="546" text-anchor="middle" font-family="'Caveat', cursive, sans-serif" font-size="17" font-weight="600" fill="#5c5a59">Date</text>
  <text transform="translate(22 284) rotate(-90)" text-anchor="middle" font-family="'Caveat', cursive, sans-serif" font-size="17" font-weight="600" fill="#5c5a59">Pulls</text>
  
  
</svg>
