<svg xmlns="http://www.w3.org/2000/svg" width="960" height="560" viewBox="0 0 960 560" role="img" aria-label="Quick Prompt · VS Code Marketplace line chart">
  <defs>
    <style>
      @import url('https://fonts.googleapis.com/css2?family=Caveat:wght@400;700&amp;display=swap');
      text { font-family: 'Caveat', cursive, sans-serif; }
    </style>
  </defs>
  <rect width="960" height="560" fill="#fdfaf6"/>
  <text x="480" y="38" text-anchor="middle" font-size="26" font-weight="700" fill="#2c2a29">Quick Prompt · VS Code Marketplace</text>
  <g transform="translate(287.5,76)"><rect x="0" y="-15" width="185" height="30" rx="3" fill="#fdfaf6" stroke="#2c2a29" stroke-width="1.5"/><line x1="10" y1="0" x2="32" y2="0" stroke="#2563eb" stroke-width="3.5" stroke-linecap="round"/><text x="40" y="6" font-family="'Caveat', cursive, sans-serif" font-size="15" font-weight="700" fill="#2c2a29">installs (left)</text></g>
  <g transform="translate(487.5,76)"><rect x="0" y="-15" width="185" height="30" rx="3" fill="#fdfaf6" stroke="#2c2a29" stroke-width="1.5"/><line x1="10" y1="0" x2="32" y2="0" stroke="#ef3b20" stroke-width="3.5" stroke-linecap="round"/><text x="40" y="6" font-family="'Caveat', cursive, sans-serif" font-size="15" font-weight="700" fill="#2c2a29">downloads (right)</text></g>
  <line x1="96" y1="455.0" x2="856" y2="455.6" stroke="#2c2a29" stroke-width="1" stroke-dasharray="6 4" opacity="0.15"/>
  <line x1="96" y1="367.2" x2="856" y2="366.4" stroke="#2c2a29" stroke-width="1" stroke-dasharray="6 4" opacity="0.15"/>
  <line x1="96" y1="284.1" x2="856" y2="284.8" stroke="#2c2a29" stroke-width="1" stroke-dasharray="6 4" opacity="0.15"/>
  <line x1="96" y1="193.7" x2="856" y2="195.0" stroke="#2c2a29" stroke-width="1" stroke-dasharray="6 4" opacity="0.15"/>
  <line x1="96" y1="112.1" x2="856" y2="111.3" stroke="#2c2a29" stroke-width="1" stroke-dasharray="6 4" opacity="0.15"/>
  <line x1="90" y1="456.0" x2="96" y2="456.0" stroke="#2563eb" stroke-width="2"/><text x="86" y="461.0" text-anchor="end" font-family="'Caveat', cursive, sans-serif" font-size="15" font-weight="700" fill="#2563eb">34</text>
  <line x1="90" y1="366.3" x2="96" y2="366.3" stroke="#2563eb" stroke-width="2"/><text x="86" y="371.3" text-anchor="end" font-family="'Caveat', cursive, sans-serif" font-size="15" font-weight="700" fill="#2563eb">46</text>
  <line x1="90" y1="284.0" x2="96" y2="284.0" stroke="#2563eb" stroke-width="2"/><text x="86" y="289.0" text-anchor="end" font-family="'Caveat', cursive, sans-serif" font-size="15" font-weight="700" fill="#2563eb">57</text>
  <line x1="90" y1="194.3" x2="96" y2="194.3" stroke="#2563eb" stroke-width="2"/><text x="86" y="199.3" text-anchor="end" font-family="'Caveat', cursive, sans-serif" font-size="15" font-weight="700" fill="#2563eb">69</text>
  <line x1="90" y1="112.0" x2="96" y2="112.0" stroke="#2563eb" stroke-width="2"/><text x="86" y="117.0" text-anchor="end" font-family="'Caveat', cursive, sans-serif" font-size="15" font-weight="700" fill="#2563eb">80</text>
  <line x1="856" y1="456.0" x2="862" y2="456.0" stroke="#ef3b20" stroke-width="2"/><text x="866" y="461.0" text-anchor="start" font-family="'Caveat', cursive, sans-serif" font-size="15" font-weight="700" fill="#ef3b20">443</text>
  <line x1="856" y1="370.1" x2="862" y2="370.1" stroke="#ef3b20" stroke-width="2"/><text x="866" y="375.1" text-anchor="start" font-family="'Caveat', cursive, sans-serif" font-size="15" font-weight="700" fill="#ef3b20">832</text>
  <line x1="856" y1="283.9" x2="862" y2="283.9" stroke="#ef3b20" stroke-width="2"/><text x="866" y="288.9" text-anchor="start" font-family="'Caveat', cursive, sans-serif" font-size="15" font-weight="700" fill="#ef3b20">1.2K</text>
  <line x1="856" y1="197.9" x2="862" y2="197.9" stroke="#ef3b20" stroke-width="2"/><text x="866" y="202.9" text-anchor="start" font-family="'Caveat', cursive, sans-serif" font-size="15" font-weight="700" fill="#ef3b20">1.6K</text>
  <line x1="856" y1="112.0" x2="862" y2="112.0" stroke="#ef3b20" stroke-width="2"/><text x="866" y="117.0" text-anchor="start" font-family="'Caveat', cursive, sans-serif" font-size="15" font-weight="700" fill="#ef3b20">2K</text>
  <path d="M94.8,111.7 L94.7,456.8 L854.8,456.0" fill="none" stroke="#2c2a29" stroke-width="2.5" stroke-linecap="round"/>
  <path d="M855.9,111.0 L854.6,456.4" fill="none" stroke="#2c2a29" stroke-width="2" stroke-linecap="round" stroke-dasharray="4 3" opacity="0.5"/>
  <path d="M97.7,401.6 L100.5,405.6 L115.9,403.4 L120.3,404.8 L131.3,403.9 L203.6,398.4 L221.5,394.0 L227.6,394.1 L237.6,394.8 L240.4,393.7 L269.9,386.3 L273.7,387.5 L288.1,382.2 L294.5,381.0 L304.2,378.8 L322.9,379.8 L327.1,381.3 L360.6,373.9 L383.1,366.1 L447.8,350.7 L456.5,349.7 L468.7,350.1 L480.3,352.9 L501.2,345.0 L508.5,345.0 L541.2,333.9 L570.2,322.8 L574.5,322.1 L580.5,319.9 L587.8,322.3 L603.9,304.0 L623.8,289.1 L628.8,292.7 L644.7,276.3 L676.4,275.6 L690.8,278.5 L695.9,277.4 L700.2,276.2 L709.2,276.8 L725.0,268.1 L771.4,259.4 L776.8,218.1 L804.1,201.4 L814.0,194.2 L842.9,156.1 L855.7,155.8" fill="none" stroke="#2563eb" stroke-width="3.5" stroke-linecap="round" stroke-linejoin="round"/>
  <circle cx="856.0" cy="156.9" r="5" fill="#2563eb"/>
  <text x="776.0" y="146.9" font-family="'Caveat', cursive, sans-serif" font-size="16" font-weight="700" fill="#2563eb">74</text>
  <path d="M95.3,434.1 L104.6,433.2 L117.5,427.4 L122.1,422.8 L128.2,421.7 L200.5,406.9 L221.5,404.5 L227.3,408.3 L233.8,406.1 L244.5,402.1 L270.8,401.2 L276.4,396.9 L290.6,397.7 L298.1,395.1 L303.1,394.7 L322.3,390.6 L331.2,389.7 L364.0,387.4 L382.7,381.9 L447.0,365.9 L457.9,366.2 L467.2,368.0 L481.4,367.3 L504.0,365.4 L509.8,364.2 L543.5,365.2 L571.3,354.9 L575.0,354.5 L580.7,355.3 L587.9,354.3 L602.7,355.0 L624.8,349.1 L629.1,352.8 L645.1,351.1 L677.9,346.6 L691.5,347.7 L697.4,347.4 L703.1,348.5 L710.9,346.5 L724.4,345.6 L769.8,338.3 L776.8,336.0 L802.4,328.8 L816.4,327.7 L845.0,325.6 L855.0,322.9" fill="none" stroke="#ef3b20" stroke-width="3.5" stroke-linecap="round" stroke-linejoin="round"/>
  <circle cx="856.0" cy="325.4" r="5" fill="#ef3b20"/>
  <text x="776.0" y="315.4" font-family="'Caveat', cursive, sans-serif" font-size="16" font-weight="700" fill="#ef3b20">1,034</text>
  <text x="96.0" y="482" text-anchor="middle" font-family="'Caveat', cursive, sans-serif" font-size="15" font-weight="600" fill="#2c2a29">May 17</text>
  <text x="289.3" y="482" text-anchor="middle" font-family="'Caveat', cursive, sans-serif" font-size="15" font-weight="600" fill="#2c2a29">Jun 15</text>
  <text x="476.0" y="482" text-anchor="middle" font-family="'Caveat', cursive, sans-serif" font-size="15" font-weight="600" fill="#2c2a29">Jul 13</text>
  <text x="669.3" y="482" text-anchor="middle" font-family="'Caveat', cursive, sans-serif" font-size="15" font-weight="600" fill="#2c2a29">Aug 11</text>
  <text x="856.0" y="482" text-anchor="middle" font-family="'Caveat', cursive, sans-serif" font-size="15" font-weight="600" fill="#2c2a29">Sep 8</text>
  <text x="476" y="546" text-anchor="middle" font-family="'Caveat', cursive, sans-serif" font-size="17" font-weight="600" fill="#5c5a59">Date</text>
  <text transform="translate(22 284) rotate(-90)" text-anchor="middle" font-family="'Caveat', cursive, sans-serif" font-size="17" font-weight="700" fill="#2563eb">installs</text>
  <text transform="translate(946 284) rotate(90)" text-anchor="middle" font-family="'Caveat', cursive, sans-serif" font-size="17" font-weight="700" fill="#ef3b20">downloads</text>
  
</svg>
