<svg xmlns="http://www.w3.org/2000/svg" width="960" height="560" viewBox="0 0 960 560" role="img" aria-label="VirtualTabs · VS Code Marketplace line chart">
  <defs>
    <style>
      @import url('https://fonts.googleapis.com/css2?family=Caveat:wght@400;700&amp;display=swap');
      text { font-family: 'Caveat', cursive, sans-serif; }
    </style>
  </defs>
  <rect width="960" height="560" fill="#fdfaf6"/>
  <text x="480" y="38" text-anchor="middle" font-size="26" font-weight="700" fill="#2c2a29">VirtualTabs · VS Code Marketplace</text>
  <g transform="translate(287.5,76)"><rect x="0" y="-15" width="185" height="30" rx="3" fill="#fdfaf6" stroke="#2c2a29" stroke-width="1.5"/><line x1="10" y1="0" x2="32" y2="0" stroke="#2563eb" stroke-width="3.5" stroke-linecap="round"/><text x="40" y="6" font-family="'Caveat', cursive, sans-serif" font-size="15" font-weight="700" fill="#2c2a29">installs (left)</text></g>
  <g transform="translate(487.5,76)"><rect x="0" y="-15" width="185" height="30" rx="3" fill="#fdfaf6" stroke="#2c2a29" stroke-width="1.5"/><line x1="10" y1="0" x2="32" y2="0" stroke="#ef3b20" stroke-width="3.5" stroke-linecap="round"/><text x="40" y="6" font-family="'Caveat', cursive, sans-serif" font-size="15" font-weight="700" fill="#2c2a29">downloads (right)</text></g>
  <line x1="96" y1="455.0" x2="856" y2="455.6" stroke="#2c2a29" stroke-width="1" stroke-dasharray="6 4" opacity="0.15"/>
  <line x1="96" y1="371.6" x2="856" y2="370.8" stroke="#2c2a29" stroke-width="1" stroke-dasharray="6 4" opacity="0.15"/>
  <line x1="96" y1="282.9" x2="856" y2="283.5" stroke="#2c2a29" stroke-width="1" stroke-dasharray="6 4" opacity="0.15"/>
  <line x1="96" y1="196.8" x2="856" y2="198.2" stroke="#2c2a29" stroke-width="1" stroke-dasharray="6 4" opacity="0.15"/>
  <line x1="96" y1="112.1" x2="856" y2="111.3" stroke="#2c2a29" stroke-width="1" stroke-dasharray="6 4" opacity="0.15"/>
  <line x1="90" y1="456.0" x2="96" y2="456.0" stroke="#2563eb" stroke-width="2"/><text x="86" y="461.0" text-anchor="end" font-family="'Caveat', cursive, sans-serif" font-size="15" font-weight="700" fill="#2563eb">263</text>
  <line x1="90" y1="370.6" x2="96" y2="370.6" stroke="#2563eb" stroke-width="2"/><text x="86" y="375.6" text-anchor="end" font-family="'Caveat', cursive, sans-serif" font-size="15" font-weight="700" fill="#2563eb">297</text>
  <line x1="90" y1="282.7" x2="96" y2="282.7" stroke="#2563eb" stroke-width="2"/><text x="86" y="287.7" text-anchor="end" font-family="'Caveat', cursive, sans-serif" font-size="15" font-weight="700" fill="#2563eb">332</text>
  <line x1="90" y1="197.4" x2="96" y2="197.4" stroke="#2563eb" stroke-width="2"/><text x="86" y="202.4" text-anchor="end" font-family="'Caveat', cursive, sans-serif" font-size="15" font-weight="700" fill="#2563eb">366</text>
  <line x1="90" y1="112.0" x2="96" y2="112.0" stroke="#2563eb" stroke-width="2"/><text x="86" y="117.0" text-anchor="end" font-family="'Caveat', cursive, sans-serif" font-size="15" font-weight="700" fill="#2563eb">400</text>
  <line x1="856" y1="456.0" x2="862" y2="456.0" stroke="#ef3b20" stroke-width="2"/><text x="866" y="461.0" text-anchor="start" font-family="'Caveat', cursive, sans-serif" font-size="15" font-weight="700" fill="#ef3b20">880</text>
  <line x1="856" y1="370.0" x2="862" y2="370.0" stroke="#ef3b20" stroke-width="2"/><text x="866" y="375.0" text-anchor="start" font-family="'Caveat', cursive, sans-serif" font-size="15" font-weight="700" fill="#ef3b20">1.2K</text>
  <line x1="856" y1="284.0" x2="862" y2="284.0" stroke="#ef3b20" stroke-width="2"/><text x="866" y="289.0" text-anchor="start" font-family="'Caveat', cursive, sans-serif" font-size="15" font-weight="700" fill="#ef3b20">1.4K</text>
  <line x1="856" y1="198.0" x2="862" y2="198.0" stroke="#ef3b20" stroke-width="2"/><text x="866" y="203.0" text-anchor="start" font-family="'Caveat', cursive, sans-serif" font-size="15" font-weight="700" fill="#ef3b20">1.7K</text>
  <line x1="856" y1="112.0" x2="862" y2="112.0" stroke="#ef3b20" stroke-width="2"/><text x="866" y="117.0" text-anchor="start" font-family="'Caveat', cursive, sans-serif" font-size="15" font-weight="700" fill="#ef3b20">2K</text>
  <path d="M94.8,111.7 L94.7,456.8 L854.8,456.0" fill="none" stroke="#2c2a29" stroke-width="2.5" stroke-linecap="round"/>
  <path d="M855.9,111.0 L854.6,456.4" fill="none" stroke="#2c2a29" stroke-width="2" stroke-linecap="round" stroke-dasharray="4 3" opacity="0.5"/>
  <path d="M97.7,418.8 L127.2,410.2 L237.9,382.9 L244.0,381.8 L256.7,370.9 L280.7,367.8 L286.9,355.9 L294.8,353.5 L331.4,349.2 L361.0,343.1 L397.2,338.1 L411.1,334.3 L445.5,326.4 L461.9,325.2 L473.3,318.0 L480.4,318.9 L494.7,318.0 L503.2,318.1 L530.7,315.2 L553.8,312.3 L564.2,308.8 L571.4,304.1 L594.8,306.9 L645.8,299.0 L663.1,288.9 L679.2,282.8 L698.2,281.7 L712.5,280.9 L720.2,276.2 L737.5,268.6 L773.7,252.7 L798.6,252.7 L830.4,251.3 L858.1,244.9" fill="none" stroke="#2563eb" stroke-width="3.5" stroke-linecap="round" stroke-linejoin="round"/>
  <circle cx="856.0" cy="245.1" r="5" fill="#2563eb"/>
  <text x="776.0" y="235.1" font-family="'Caveat', cursive, sans-serif" font-size="16" font-weight="700" fill="#2563eb">347</text>
  <path d="M95.3,428.1 L131.3,406.6 L239.5,379.1 L245.8,377.1 L253.5,376.6 L277.6,373.7 L286.9,372.9 L294.4,376.6 L327.7,368.6 L365.1,358.4 L398.2,354.5 L413.8,349.7 L448.1,345.0 L465.6,341.9 L472.2,342.3 L479.8,338.9 L498.7,331.2 L506.5,333.8 L530.3,332.3 L553.0,326.8 L565.6,324.8 L569.9,326.4 L595.9,323.2 L648.5,318.6 L664.4,312.1 L681.5,311.2 L699.3,300.9 L713.1,299.0 L720.4,299.9 L737.6,296.7 L772.6,296.7 L799.7,289.7 L830.7,292.3 L858.4,291.1" fill="none" stroke="#ef3b20" stroke-width="3.5" stroke-linecap="round" stroke-linejoin="round"/>
  <circle cx="856.0" cy="289.2" r="5" fill="#ef3b20"/>
  <text x="776.0" y="279.2" font-family="'Caveat', cursive, sans-serif" font-size="16" font-weight="700" fill="#ef3b20">1,423</text>
  <text x="96.0" y="482" text-anchor="middle" font-family="'Caveat', cursive, sans-serif" font-size="15" font-weight="600" fill="#2c2a29">May 17</text>
  <text x="288.1" y="482" text-anchor="middle" font-family="'Caveat', cursive, sans-serif" font-size="15" font-weight="600" fill="#2c2a29">Jun 9</text>
  <text x="480.2" y="482" text-anchor="middle" font-family="'Caveat', cursive, sans-serif" font-size="15" font-weight="600" fill="#2c2a29">Jul 2</text>
  <text x="663.9" y="482" text-anchor="middle" font-family="'Caveat', cursive, sans-serif" font-size="15" font-weight="600" fill="#2c2a29">Jul 24</text>
  <text x="856.0" y="482" text-anchor="middle" font-family="'Caveat', cursive, sans-serif" font-size="15" font-weight="600" fill="#2c2a29">Aug 16</text>
  <text x="476" y="546" text-anchor="middle" font-family="'Caveat', cursive, sans-serif" font-size="17" font-weight="600" fill="#5c5a59">Date</text>
  <text transform="translate(22 284) rotate(-90)" text-anchor="middle" font-family="'Caveat', cursive, sans-serif" font-size="17" font-weight="700" fill="#2563eb">installs</text>
  <text transform="translate(946 284) rotate(90)" text-anchor="middle" font-family="'Caveat', cursive, sans-serif" font-size="17" font-weight="700" fill="#ef3b20">downloads</text>
  
</svg>
