<svg xmlns="http://www.w3.org/2000/svg" width="960" height="560" viewBox="0 0 960 560" role="img" aria-label="Quick Prompt · VS Code Marketplace line chart">
  <defs>
    <style>
      @import url('https://fonts.googleapis.com/css2?family=Caveat:wght@400;700&amp;display=swap');
      text { font-family: 'Caveat', cursive, sans-serif; }
    </style>
  </defs>
  <rect width="960" height="560" fill="#fdfaf6"/>
  <text x="480" y="38" text-anchor="middle" font-size="26" font-weight="700" fill="#2c2a29">Quick Prompt · VS Code Marketplace</text>
  <g transform="translate(287.5,76)"><rect x="0" y="-15" width="185" height="30" rx="3" fill="#fdfaf6" stroke="#2c2a29" stroke-width="1.5"/><line x1="10" y1="0" x2="32" y2="0" stroke="#2563eb" stroke-width="3.5" stroke-linecap="round"/><text x="40" y="6" font-family="'Caveat', cursive, sans-serif" font-size="15" font-weight="700" fill="#2c2a29">installs (left)</text></g>
  <g transform="translate(487.5,76)"><rect x="0" y="-15" width="185" height="30" rx="3" fill="#fdfaf6" stroke="#2c2a29" stroke-width="1.5"/><line x1="10" y1="0" x2="32" y2="0" stroke="#ef3b20" stroke-width="3.5" stroke-linecap="round"/><text x="40" y="6" font-family="'Caveat', cursive, sans-serif" font-size="15" font-weight="700" fill="#2c2a29">downloads (right)</text></g>
  <line x1="96" y1="455.0" x2="856" y2="455.6" stroke="#2c2a29" stroke-width="1" stroke-dasharray="6 4" opacity="0.15"/>
  <line x1="96" y1="369.1" x2="856" y2="368.3" stroke="#2c2a29" stroke-width="1" stroke-dasharray="6 4" opacity="0.15"/>
  <line x1="96" y1="280.5" x2="856" y2="281.1" stroke="#2c2a29" stroke-width="1" stroke-dasharray="6 4" opacity="0.15"/>
  <line x1="96" y1="199.3" x2="856" y2="200.6" stroke="#2c2a29" stroke-width="1" stroke-dasharray="6 4" opacity="0.15"/>
  <line x1="96" y1="112.1" x2="856" y2="111.3" stroke="#2c2a29" stroke-width="1" stroke-dasharray="6 4" opacity="0.15"/>
  <line x1="90" y1="456.0" x2="96" y2="456.0" stroke="#2563eb" stroke-width="2"/><text x="86" y="461.0" text-anchor="end" font-family="'Caveat', cursive, sans-serif" font-size="15" font-weight="700" fill="#2563eb">33</text>
  <line x1="90" y1="368.2" x2="96" y2="368.2" stroke="#2563eb" stroke-width="2"/><text x="86" y="373.2" text-anchor="end" font-family="'Caveat', cursive, sans-serif" font-size="15" font-weight="700" fill="#2563eb">45</text>
  <line x1="90" y1="280.3" x2="96" y2="280.3" stroke="#2563eb" stroke-width="2"/><text x="86" y="285.3" text-anchor="end" font-family="'Caveat', cursive, sans-serif" font-size="15" font-weight="700" fill="#2563eb">57</text>
  <line x1="90" y1="199.8" x2="96" y2="199.8" stroke="#2563eb" stroke-width="2"/><text x="86" y="204.8" text-anchor="end" font-family="'Caveat', cursive, sans-serif" font-size="15" font-weight="700" fill="#2563eb">68</text>
  <line x1="90" y1="112.0" x2="96" y2="112.0" stroke="#2563eb" stroke-width="2"/><text x="86" y="117.0" text-anchor="end" font-family="'Caveat', cursive, sans-serif" font-size="15" font-weight="700" fill="#2563eb">80</text>
  <line x1="856" y1="456.0" x2="862" y2="456.0" stroke="#ef3b20" stroke-width="2"/><text x="866" y="461.0" text-anchor="start" font-family="'Caveat', cursive, sans-serif" font-size="15" font-weight="700" fill="#ef3b20">426</text>
  <line x1="856" y1="369.9" x2="862" y2="369.9" stroke="#ef3b20" stroke-width="2"/><text x="866" y="374.9" text-anchor="start" font-family="'Caveat', cursive, sans-serif" font-size="15" font-weight="700" fill="#ef3b20">820</text>
  <line x1="856" y1="284.0" x2="862" y2="284.0" stroke="#ef3b20" stroke-width="2"/><text x="866" y="289.0" text-anchor="start" font-family="'Caveat', cursive, sans-serif" font-size="15" font-weight="700" fill="#ef3b20">1.2K</text>
  <line x1="856" y1="197.9" x2="862" y2="197.9" stroke="#ef3b20" stroke-width="2"/><text x="866" y="202.9" text-anchor="start" font-family="'Caveat', cursive, sans-serif" font-size="15" font-weight="700" fill="#ef3b20">1.6K</text>
  <line x1="856" y1="112.0" x2="862" y2="112.0" stroke="#ef3b20" stroke-width="2"/><text x="866" y="117.0" text-anchor="start" font-family="'Caveat', cursive, sans-serif" font-size="15" font-weight="700" fill="#ef3b20">2K</text>
  <path d="M94.8,111.7 L94.7,456.8 L854.8,456.0" fill="none" stroke="#2c2a29" stroke-width="2.5" stroke-linecap="round"/>
  <path d="M855.9,111.0 L854.6,456.4" fill="none" stroke="#2c2a29" stroke-width="2" stroke-linecap="round" stroke-dasharray="4 3" opacity="0.5"/>
  <path d="M97.7,395.4 L99.4,399.4 L112.7,397.2 L116.0,398.5 L126.0,397.7 L186.3,392.4 L201.0,387.9 L206.1,388.1 L214.9,388.8 L216.6,387.7 L241.8,380.4 L244.6,381.6 L256.8,376.5 L262.1,375.3 L270.7,373.1 L286.2,374.0 L289.4,375.6 L317.5,368.4 L336.7,360.7 L390.7,345.6 L398.3,344.6 L408.3,345.0 L417.8,347.8 L435.4,340.1 L441.7,340.1 L469.0,329.2 L493.7,318.4 L496.9,317.6 L501.8,315.4 L508.0,317.9 L521.9,299.9 L538.6,285.3 L542.5,288.9 L556.3,272.8 L582.5,272.1 L594.8,275.0 L598.9,273.9 L602.1,272.7 L610.0,273.3 L623.7,264.8 L662.5,256.2 L666.8,215.9 L689.8,199.5 L697.5,192.4 L722.1,155.2 L732.7,154.8 L746.4,158.2 L753.2,153.5 L764.2,157.0 L822.4,142.5 L846.8,136.0 L851.4,135.3 L856.6,128.3" fill="none" stroke="#2563eb" stroke-width="3.5" stroke-linecap="round" stroke-linejoin="round"/>
  <circle cx="856.0" cy="126.6" r="5" fill="#2563eb"/>
  <text x="776.0" y="116.6" font-family="'Caveat', cursive, sans-serif" font-size="16" font-weight="700" fill="#2563eb">78</text>
  <path d="M95.3,430.7 L103.5,429.7 L114.3,423.9 L117.8,419.4 L122.8,418.4 L183.2,403.7 L201.0,401.3 L205.7,405.1 L211.2,402.9 L220.8,398.9 L242.8,398.0 L247.3,393.8 L259.3,394.6 L265.8,392.0 L269.6,391.7 L285.6,387.6 L293.4,386.7 L320.8,384.4 L336.4,379.0 L389.9,363.1 L399.7,363.4 L406.8,365.2 L418.9,364.6 L438.2,362.7 L442.9,361.5 L471.3,362.5 L494.7,352.3 L497.4,351.9 L502.0,352.7 L508.1,351.7 L520.8,352.4 L539.6,346.6 L542.8,350.2 L556.7,348.6 L584.0,344.0 L595.5,345.2 L600.4,344.9 L605.0,345.9 L611.7,343.9 L623.0,343.0 L660.9,335.8 L666.8,333.6 L688.1,326.5 L700.0,325.4 L724.2,323.3 L732.0,320.6 L741.9,324.8 L755.7,320.5 L767.4,322.7 L822.1,321.7 L842.4,312.7 L851.8,312.3 L854.8,305.8" fill="none" stroke="#ef3b20" stroke-width="3.5" stroke-linecap="round" stroke-linejoin="round"/>
  <circle cx="856.0" cy="304.1" r="5" fill="#ef3b20"/>
  <text x="776.0" y="294.1" font-family="'Caveat', cursive, sans-serif" font-size="16" font-weight="700" fill="#ef3b20">1,121</text>
  <text x="96.0" y="482" text-anchor="middle" font-family="'Caveat', cursive, sans-serif" font-size="15" font-weight="600" fill="#2c2a29">May 17</text>
  <text x="286.0" y="482" text-anchor="middle" font-family="'Caveat', cursive, sans-serif" font-size="15" font-weight="600" fill="#2c2a29">Jun 20</text>
  <text x="476.0" y="482" text-anchor="middle" font-family="'Caveat', cursive, sans-serif" font-size="15" font-weight="600" fill="#2c2a29">Jul 24</text>
  <text x="666.0" y="482" text-anchor="middle" font-family="'Caveat', cursive, sans-serif" font-size="15" font-weight="600" fill="#2c2a29">Aug 27</text>
  <text x="856.0" y="482" text-anchor="middle" font-family="'Caveat', cursive, sans-serif" font-size="15" font-weight="600" fill="#2c2a29">Sep 30</text>
  <text x="476" y="546" text-anchor="middle" font-family="'Caveat', cursive, sans-serif" font-size="17" font-weight="600" fill="#5c5a59">Date</text>
  <text transform="translate(22 284) rotate(-90)" text-anchor="middle" font-family="'Caveat', cursive, sans-serif" font-size="17" font-weight="700" fill="#2563eb">installs</text>
  <text transform="translate(946 284) rotate(90)" text-anchor="middle" font-family="'Caveat', cursive, sans-serif" font-size="17" font-weight="700" fill="#ef3b20">downloads</text>
  
</svg>
